<?xml version="1.0" encoding="UTF-8"?>
<svg version="1.1" xmlns="http://www.w3.org/2000/svg" width="100" height="100">
<path d="M0 0 C5.84101706 4.42587634 10.30984044 9.7079021 12.5625 16.75 C13.59330412 27.34570747 12.43937619 35.04871149 6.4375 43.875 C3.43532916 47.29256554 -0.46359144 49.51130962 -4.328125 51.84375 C-6.67124457 53.63903938 -6.67124457 53.63903938 -7.359375 56.65625 C-7.44402098 60.00823075 -6.7404338 61.70668531 -5.4375 64.75 C-4.79392115 71.42817534 -4.35526734 78.11933426 -8.4375 83.75 C-13.2227032 89.49224384 -17.96777264 92.40684015 -25.34765625 93.13671875 C-40.53755091 93.75507148 -51.70712334 89.0096329 -63 78.875 C-74.04679202 67.47936191 -77.86077891 52.56246845 -77.80102539 37.16894531 C-77.57460682 25.04096017 -74.69991543 14.98829127 -66.4375 5.75 C-49.05112795 -10.51063573 -20.0519613 -12.92434674 0 0 Z M-35.3125 7.25 C-36.91318775 10.80708388 -37.00377076 13.91194265 -36.4375 17.75 C-35.50506129 20.32951684 -35.50506129 20.32951684 -33.4375 21.75 C-30.4375 22.41666667 -30.4375 22.41666667 -27.4375 21.75 C-25.22307779 19.97846223 -24.56855899 18.63828869 -24.15625 15.84375 C-24.00955001 12.56745032 -24.20716023 10.26186617 -25.5625 7.25 C-27.43856978 5.49913573 -27.43856978 5.49913573 -30.4375 5.25 C-33.43643022 5.49913573 -33.43643022 5.49913573 -35.3125 7.25 Z M-57.3125 17.25 C-58.91318775 20.80708388 -59.00377076 23.91194265 -58.4375 27.75 C-57.50506129 30.32951684 -57.50506129 30.32951684 -55.4375 31.75 C-52.4375 32.41666667 -52.4375 32.41666667 -49.4375 31.75 C-47.22307779 29.97846223 -46.56855899 28.63828869 -46.15625 25.84375 C-46.00955001 22.56745032 -46.20716023 20.26186617 -47.5625 17.25 C-49.43856978 15.49913573 -49.43856978 15.49913573 -52.4375 15.25 C-55.43643022 15.49913573 -55.43643022 15.49913573 -57.3125 17.25 Z M-13.3125 17.25 C-14.91318775 20.80708388 -15.00377076 23.91194265 -14.4375 27.75 C-13.50506129 30.32951684 -13.50506129 30.32951684 -11.4375 31.75 C-8.4375 32.41666667 -8.4375 32.41666667 -5.4375 31.75 C-3.22307779 29.97846223 -2.56855899 28.63828869 -2.15625 25.84375 C-2.00955001 22.56745032 -2.20716023 20.26186617 -3.5625 17.25 C-5.43856978 15.49913573 -5.43856978 15.49913573 -8.4375 15.25 C-11.43643022 15.49913573 -11.43643022 15.49913573 -13.3125 17.25 Z M-59.3125 43.25 C-60.91318775 46.80708388 -61.00377076 49.91194265 -60.4375 53.75 C-59.50506129 56.32951684 -59.50506129 56.32951684 -57.4375 57.75 C-54.4375 58.41666667 -54.4375 58.41666667 -51.4375 57.75 C-49.22307779 55.97846223 -48.56855899 54.63828869 -48.15625 51.84375 C-48.00955001 48.56745032 -48.20716023 46.26186617 -49.5625 43.25 C-51.43856978 41.49913573 -51.43856978 41.49913573 -54.4375 41.25 C-57.43643022 41.49913573 -57.43643022 41.49913573 -59.3125 43.25 Z M-34.8125 65.375 C-36.92456506 68.46186432 -37.04945145 70.0782913 -36.4375 73.75 C-34.9375 76.25 -34.9375 76.25 -32.4375 77.75 C-28.7657913 78.36195145 -27.14936432 78.23706506 -24.0625 76.125 C-21.95043494 73.03813568 -21.82554855 71.4217087 -22.4375 67.75 C-23.9375 65.25 -23.9375 65.25 -26.4375 63.75 C-30.1092087 63.13804855 -31.72563568 63.26293494 -34.8125 65.375 Z " fill="#F08038" transform="translate(83.4375,7.25)"/>
</svg>
